<mxfile host="app.diagrams.net" modified="2024-04-14T10:27:31.492Z" agent="Mozilla/5.0 (Windows NT 10.0; Win64; x64) AppleWebKit/537.36 (KHTML, like Gecko) Chrome/123.0.0.0 Safari/537.36" etag="Fr3X71lvTuLtwjMFHpVz" version="24.2.3" type="device">
  <diagram name="Page-1" id="2YBvvXClWsGukQMizWep">
    <mxGraphModel dx="1434" dy="738" grid="1" gridSize="10" guides="1" tooltips="1" connect="1" arrows="1" fold="1" page="1" pageScale="1" pageWidth="850" pageHeight="1100" math="0" shadow="0">
      <root>
        <mxCell id="0" />
        <mxCell id="1" parent="0" />
        <mxCell id="H2OrkQONFnL0gbRXcBQ1-15" value="" style="group;fillColor=default;" parent="1" vertex="1" connectable="0">
          <mxGeometry x="140" y="40" width="301.29" height="620" as="geometry" />
        </mxCell>
        <mxCell id="H2OrkQONFnL0gbRXcBQ1-1" value="Database" style="shape=umlLifeline;perimeter=lifelinePerimeter;whiteSpace=wrap;html=1;container=1;dropTarget=0;collapsible=0;recursiveResize=0;outlineConnect=0;portConstraint=eastwest;newEdgeStyle={&quot;edgeStyle&quot;:&quot;elbowEdgeStyle&quot;,&quot;elbow&quot;:&quot;vertical&quot;,&quot;curved&quot;:0,&quot;rounded&quot;:0};fillColor=#A9C4EB;" parent="H2OrkQONFnL0gbRXcBQ1-15" vertex="1">
          <mxGeometry width="100" height="620" as="geometry" />
        </mxCell>
        <mxCell id="mxsBTgNO9ojJ5e6mIskL-1" value="" style="rounded=0;whiteSpace=wrap;html=1;rotation=90;fillColor=#A9C4EB;" vertex="1" parent="H2OrkQONFnL0gbRXcBQ1-15">
          <mxGeometry x="-205" y="300" width="492.59" height="30" as="geometry" />
        </mxCell>
        <mxCell id="H2OrkQONFnL0gbRXcBQ1-39" value="" style="rounded=0;whiteSpace=wrap;html=1;rotation=90;fillColor=#A9C4EB;" parent="H2OrkQONFnL0gbRXcBQ1-15" vertex="1">
          <mxGeometry x="12.5" y="110" width="75" height="20" as="geometry" />
        </mxCell>
        <mxCell id="H2OrkQONFnL0gbRXcBQ1-52" value="" style="rounded=0;whiteSpace=wrap;html=1;rotation=90;fillColor=#A9C4EB;" parent="H2OrkQONFnL0gbRXcBQ1-15" vertex="1">
          <mxGeometry x="12.5" y="230" width="75" height="20" as="geometry" />
        </mxCell>
        <mxCell id="H2OrkQONFnL0gbRXcBQ1-67" value="" style="rounded=0;whiteSpace=wrap;html=1;rotation=90;fillColor=#A9C4EB;" parent="H2OrkQONFnL0gbRXcBQ1-15" vertex="1">
          <mxGeometry x="12.5" y="370" width="75" height="20" as="geometry" />
        </mxCell>
        <mxCell id="H2OrkQONFnL0gbRXcBQ1-78" value="" style="rounded=0;whiteSpace=wrap;html=1;rotation=90;fillColor=#A9C4EB;" parent="H2OrkQONFnL0gbRXcBQ1-15" vertex="1">
          <mxGeometry x="12.5" y="473" width="75" height="20" as="geometry" />
        </mxCell>
        <mxCell id="H2OrkQONFnL0gbRXcBQ1-16" value="" style="group;fillColor=default;" parent="1" vertex="1" connectable="0">
          <mxGeometry x="320" y="43" width="135" height="630.64" as="geometry" />
        </mxCell>
        <mxCell id="H2OrkQONFnL0gbRXcBQ1-2" value="Bank" style="shape=umlLifeline;perimeter=lifelinePerimeter;whiteSpace=wrap;html=1;container=1;dropTarget=0;collapsible=0;recursiveResize=0;outlineConnect=0;portConstraint=eastwest;newEdgeStyle={&quot;edgeStyle&quot;:&quot;elbowEdgeStyle&quot;,&quot;elbow&quot;:&quot;vertical&quot;,&quot;curved&quot;:0,&quot;rounded&quot;:0};fillColor=#A9C4EB;" parent="H2OrkQONFnL0gbRXcBQ1-16" vertex="1">
          <mxGeometry width="100" height="620" as="geometry" />
        </mxCell>
        <mxCell id="H2OrkQONFnL0gbRXcBQ1-93" value="" style="rounded=0;whiteSpace=wrap;html=1;rotation=90;fillColor=#A9C4EB;" parent="H2OrkQONFnL0gbRXcBQ1-16" vertex="1">
          <mxGeometry x="-5.759999999999991" y="224" width="105.76" height="20" as="geometry" />
        </mxCell>
        <mxCell id="H2OrkQONFnL0gbRXcBQ1-45" value="" style="rounded=0;whiteSpace=wrap;html=1;rotation=90;fillColor=#A9C4EB;" parent="H2OrkQONFnL0gbRXcBQ1-16" vertex="1">
          <mxGeometry x="12.5" y="227" width="75" height="20" as="geometry" />
        </mxCell>
        <mxCell id="H2OrkQONFnL0gbRXcBQ1-46" value="" style="rounded=0;whiteSpace=wrap;html=1;rotation=90;fillColor=#A9C4EB;" parent="H2OrkQONFnL0gbRXcBQ1-16" vertex="1">
          <mxGeometry x="194" y="227" width="75" height="20" as="geometry" />
        </mxCell>
        <mxCell id="H2OrkQONFnL0gbRXcBQ1-14" value="" style="rounded=0;whiteSpace=wrap;html=1;fillColor=#A9C4EB;" parent="H2OrkQONFnL0gbRXcBQ1-16" vertex="1">
          <mxGeometry y="583.0036363636364" width="100" height="43.63636363636363" as="geometry" />
        </mxCell>
        <mxCell id="H2OrkQONFnL0gbRXcBQ1-29" value="&lt;span style=&quot;color: rgb(0, 0, 0); font-family: Helvetica; font-size: 12px; font-style: normal; font-variant-ligatures: normal; font-variant-caps: normal; font-weight: 400; letter-spacing: normal; orphans: 2; text-align: center; text-indent: 0px; text-transform: none; widows: 2; word-spacing: 0px; -webkit-text-stroke-width: 0px; white-space: normal; text-decoration-thickness: initial; text-decoration-style: initial; text-decoration-color: initial; float: none; display: inline !important;&quot;&gt;Bank&lt;/span&gt;" style="text;whiteSpace=wrap;html=1;fillColor=#A9C4EB;labelBackgroundColor=#A9C4EB;" parent="H2OrkQONFnL0gbRXcBQ1-16" vertex="1">
          <mxGeometry x="35" y="592.82" width="30" height="20" as="geometry" />
        </mxCell>
        <mxCell id="H2OrkQONFnL0gbRXcBQ1-21" value="" style="group;fillColor=default;" parent="1" vertex="1" connectable="0">
          <mxGeometry x="720" y="40" width="105.44999999999999" height="620" as="geometry" />
        </mxCell>
        <mxCell id="H2OrkQONFnL0gbRXcBQ1-22" value="UserType" style="shape=umlLifeline;perimeter=lifelinePerimeter;whiteSpace=wrap;html=1;container=1;dropTarget=0;collapsible=0;recursiveResize=0;outlineConnect=0;portConstraint=eastwest;newEdgeStyle={&quot;edgeStyle&quot;:&quot;elbowEdgeStyle&quot;,&quot;elbow&quot;:&quot;vertical&quot;,&quot;curved&quot;:0,&quot;rounded&quot;:0};fillColor=#A9C4EB;" parent="H2OrkQONFnL0gbRXcBQ1-21" vertex="1">
          <mxGeometry width="100" height="620" as="geometry" />
        </mxCell>
        <mxCell id="H2OrkQONFnL0gbRXcBQ1-23" value="" style="rounded=0;whiteSpace=wrap;html=1;fillColor=#A9C4EB;" parent="H2OrkQONFnL0gbRXcBQ1-21" vertex="1">
          <mxGeometry y="586.3636363636364" width="100" height="43.63636363636363" as="geometry" />
        </mxCell>
        <mxCell id="H2OrkQONFnL0gbRXcBQ1-31" value="&lt;span style=&quot;color: rgb(0, 0, 0); font-family: Helvetica; font-size: 12px; font-style: normal; font-variant-ligatures: normal; font-variant-caps: normal; font-weight: 400; letter-spacing: normal; orphans: 2; text-align: center; text-indent: 0px; text-transform: none; widows: 2; word-spacing: 0px; -webkit-text-stroke-width: 0px; white-space: normal; text-decoration-thickness: initial; text-decoration-style: initial; text-decoration-color: initial; float: none; display: inline !important;&quot;&gt;UserType&lt;/span&gt;" style="text;whiteSpace=wrap;html=1;fillColor=#A9C4EB;labelBackgroundColor=#A9C4EB;" parent="H2OrkQONFnL0gbRXcBQ1-21" vertex="1">
          <mxGeometry x="25" y="598.1800000000001" width="50" height="20" as="geometry" />
        </mxCell>
        <mxCell id="H2OrkQONFnL0gbRXcBQ1-106" value="" style="rounded=0;whiteSpace=wrap;html=1;rotation=90;fillColor=#A9C4EB;" parent="H2OrkQONFnL0gbRXcBQ1-21" vertex="1">
          <mxGeometry x="7.15" y="465.86" width="95.57" height="29.88" as="geometry" />
        </mxCell>
        <mxCell id="H2OrkQONFnL0gbRXcBQ1-77" value="" style="rounded=0;whiteSpace=wrap;html=1;rotation=90;fillColor=#A9C4EB;" parent="H2OrkQONFnL0gbRXcBQ1-21" vertex="1">
          <mxGeometry x="9.5" y="473" width="75" height="20" as="geometry" />
        </mxCell>
        <mxCell id="H2OrkQONFnL0gbRXcBQ1-18" value="" style="group;fillColor=default;" parent="1" vertex="1" connectable="0">
          <mxGeometry x="500" y="40" width="147.84000000000006" height="620" as="geometry" />
        </mxCell>
        <mxCell id="H2OrkQONFnL0gbRXcBQ1-19" value="UserProfile" style="shape=umlLifeline;perimeter=lifelinePerimeter;whiteSpace=wrap;html=1;container=1;dropTarget=0;collapsible=0;recursiveResize=0;outlineConnect=0;portConstraint=eastwest;newEdgeStyle={&quot;edgeStyle&quot;:&quot;elbowEdgeStyle&quot;,&quot;elbow&quot;:&quot;vertical&quot;,&quot;curved&quot;:0,&quot;rounded&quot;:0};fillColor=#A9C4EB;" parent="H2OrkQONFnL0gbRXcBQ1-18" vertex="1">
          <mxGeometry width="100" height="620" as="geometry" />
        </mxCell>
        <mxCell id="H2OrkQONFnL0gbRXcBQ1-105" value="" style="rounded=0;whiteSpace=wrap;html=1;rotation=90;fillColor=#A9C4EB;" parent="H2OrkQONFnL0gbRXcBQ1-18" vertex="1">
          <mxGeometry x="-64.99999999999994" y="426" width="222.84" height="20" as="geometry" />
        </mxCell>
        <mxCell id="H2OrkQONFnL0gbRXcBQ1-66" value="" style="rounded=0;whiteSpace=wrap;html=1;rotation=90;fillColor=#A9C4EB;" parent="H2OrkQONFnL0gbRXcBQ1-18" vertex="1">
          <mxGeometry x="12.5" y="370" width="75" height="20" as="geometry" />
        </mxCell>
        <mxCell id="H2OrkQONFnL0gbRXcBQ1-112" value="" style="rounded=0;whiteSpace=wrap;html=1;rotation=90;fillColor=#A9C4EB;" parent="H2OrkQONFnL0gbRXcBQ1-18" vertex="1">
          <mxGeometry x="2.06" y="471.94" width="97.87" height="17.88" as="geometry" />
        </mxCell>
        <mxCell id="H2OrkQONFnL0gbRXcBQ1-24" value="" style="group;fillColor=default;" parent="1" vertex="1" connectable="0">
          <mxGeometry x="900" y="40" width="301.30999999999995" height="630" as="geometry" />
        </mxCell>
        <mxCell id="H2OrkQONFnL0gbRXcBQ1-25" value="BankAccounts" style="shape=umlLifeline;perimeter=lifelinePerimeter;whiteSpace=wrap;html=1;container=1;dropTarget=0;collapsible=0;recursiveResize=0;outlineConnect=0;portConstraint=eastwest;newEdgeStyle={&quot;edgeStyle&quot;:&quot;elbowEdgeStyle&quot;,&quot;elbow&quot;:&quot;vertical&quot;,&quot;curved&quot;:0,&quot;rounded&quot;:0};fillColor=#A9C4EB;" parent="H2OrkQONFnL0gbRXcBQ1-24" vertex="1">
          <mxGeometry width="100" height="630" as="geometry" />
        </mxCell>
        <mxCell id="H2OrkQONFnL0gbRXcBQ1-92" value="" style="rounded=0;whiteSpace=wrap;html=1;rotation=90;fillColor=#A9C4EB;" parent="H2OrkQONFnL0gbRXcBQ1-24" vertex="1">
          <mxGeometry x="-190" y="300" width="502.59" height="30" as="geometry" />
        </mxCell>
        <mxCell id="H2OrkQONFnL0gbRXcBQ1-33" value="" style="rounded=0;whiteSpace=wrap;html=1;rotation=90;fillColor=#A9C4EB;" parent="H2OrkQONFnL0gbRXcBQ1-24" vertex="1">
          <mxGeometry x="12.5" y="110" width="75" height="20" as="geometry" />
        </mxCell>
        <mxCell id="H2OrkQONFnL0gbRXcBQ1-26" value="" style="rounded=0;whiteSpace=wrap;html=1;fillColor=#A9C4EB;" parent="H2OrkQONFnL0gbRXcBQ1-24" vertex="1">
          <mxGeometry y="586.3636363636364" width="100" height="43.63636363636363" as="geometry" />
        </mxCell>
        <mxCell id="H2OrkQONFnL0gbRXcBQ1-32" value="&lt;span style=&quot;color: rgb(0, 0, 0); font-family: Helvetica; font-size: 12px; font-style: normal; font-variant-ligatures: normal; font-variant-caps: normal; font-weight: 400; letter-spacing: normal; orphans: 2; text-align: center; text-indent: 0px; text-transform: none; widows: 2; word-spacing: 0px; -webkit-text-stroke-width: 0px; white-space: normal; text-decoration-thickness: initial; text-decoration-style: initial; text-decoration-color: initial; float: none; display: inline !important; background-color: rgb(169, 196, 235);&quot;&gt;BankAccounts&lt;/span&gt;" style="text;whiteSpace=wrap;html=1;fillColor=#A9C4EB;" parent="H2OrkQONFnL0gbRXcBQ1-24" vertex="1">
          <mxGeometry x="10" y="598.1800000000001" width="80" height="20" as="geometry" />
        </mxCell>
        <mxCell id="H2OrkQONFnL0gbRXcBQ1-88" value="" style="rounded=0;whiteSpace=wrap;html=1;rotation=90;fillColor=#A9C4EB;" parent="H2OrkQONFnL0gbRXcBQ1-24" vertex="1">
          <mxGeometry x="-2.87" y="227.19" width="105.76" height="20" as="geometry" />
        </mxCell>
        <mxCell id="H2OrkQONFnL0gbRXcBQ1-91" value="" style="rounded=0;whiteSpace=wrap;html=1;rotation=90;fillColor=#A9C4EB;" parent="H2OrkQONFnL0gbRXcBQ1-24" vertex="1">
          <mxGeometry x="-61.41" y="425.96" width="222.84" height="20" as="geometry" />
        </mxCell>
        <mxCell id="H2OrkQONFnL0gbRXcBQ1-17" value="" style="group" parent="1" vertex="1" connectable="0">
          <mxGeometry x="22" y="13" width="40" height="647" as="geometry" />
        </mxCell>
        <mxCell id="H2OrkQONFnL0gbRXcBQ1-11" value="" style="group" parent="H2OrkQONFnL0gbRXcBQ1-17" vertex="1" connectable="0">
          <mxGeometry width="40" height="635.4464285714286" as="geometry" />
        </mxCell>
        <mxCell id="H2OrkQONFnL0gbRXcBQ1-10" value="" style="group" parent="H2OrkQONFnL0gbRXcBQ1-11" vertex="1" connectable="0">
          <mxGeometry width="40" height="635.4464285714288" as="geometry" />
        </mxCell>
        <mxCell id="H2OrkQONFnL0gbRXcBQ1-4" value="" style="shape=umlLifeline;perimeter=lifelinePerimeter;whiteSpace=wrap;html=1;container=1;dropTarget=0;collapsible=0;recursiveResize=0;outlineConnect=0;portConstraint=eastwest;newEdgeStyle={&quot;curved&quot;:0,&quot;rounded&quot;:0};participant=umlActor;" parent="H2OrkQONFnL0gbRXcBQ1-10" vertex="1">
          <mxGeometry x="8" y="36.53816964285715" width="20" height="598.9082589285717" as="geometry" />
        </mxCell>
        <mxCell id="H2OrkQONFnL0gbRXcBQ1-9" value="User" style="text;strokeColor=none;fillColor=none;align=left;verticalAlign=middle;spacingLeft=4;spacingRight=4;overflow=hidden;points=[[0,0.5],[1,0.5]];portConstraint=eastwest;rotatable=0;whiteSpace=wrap;html=1;" parent="H2OrkQONFnL0gbRXcBQ1-10" vertex="1">
          <mxGeometry width="40" height="47.65848214285717" as="geometry" />
        </mxCell>
        <mxCell id="H2OrkQONFnL0gbRXcBQ1-38" style="edgeStyle=orthogonalEdgeStyle;rounded=0;orthogonalLoop=1;jettySize=auto;html=1;exitX=0.25;exitY=1;exitDx=0;exitDy=0;entryX=0.25;entryY=0;entryDx=0;entryDy=0;" parent="1" source="H2OrkQONFnL0gbRXcBQ1-33" target="H2OrkQONFnL0gbRXcBQ1-39" edge="1">
          <mxGeometry relative="1" as="geometry">
            <mxPoint x="210" y="140" as="targetPoint" />
          </mxGeometry>
        </mxCell>
        <mxCell id="H2OrkQONFnL0gbRXcBQ1-41" value="getBankAccountsWithDetails()" style="edgeLabel;html=1;align=center;verticalAlign=middle;resizable=0;points=[];" parent="H2OrkQONFnL0gbRXcBQ1-38" vertex="1" connectable="0">
          <mxGeometry x="0.2286" relative="1" as="geometry">
            <mxPoint x="174" as="offset" />
          </mxGeometry>
        </mxCell>
        <mxCell id="H2OrkQONFnL0gbRXcBQ1-40" style="edgeStyle=orthogonalEdgeStyle;rounded=0;orthogonalLoop=1;jettySize=auto;html=1;exitX=0.75;exitY=0;exitDx=0;exitDy=0;entryX=0.75;entryY=1;entryDx=0;entryDy=0;dashed=1;" parent="1" source="H2OrkQONFnL0gbRXcBQ1-39" target="H2OrkQONFnL0gbRXcBQ1-33" edge="1">
          <mxGeometry relative="1" as="geometry" />
        </mxCell>
        <mxCell id="H2OrkQONFnL0gbRXcBQ1-42" value="Answer (query bank_accounts table)" style="edgeLabel;html=1;align=center;verticalAlign=middle;resizable=0;points=[];" parent="H2OrkQONFnL0gbRXcBQ1-40" vertex="1" connectable="0">
          <mxGeometry x="-0.2629" y="-1" relative="1" as="geometry">
            <mxPoint x="190" as="offset" />
          </mxGeometry>
        </mxCell>
        <mxCell id="H2OrkQONFnL0gbRXcBQ1-35" value="" style="edgeStyle=elbowEdgeStyle;fontSize=12;html=1;endArrow=blockThin;endFill=1;rounded=0;entryX=0;entryY=1;entryDx=0;entryDy=0;" parent="1" target="H2OrkQONFnL0gbRXcBQ1-92" edge="1">
          <mxGeometry width="160" relative="1" as="geometry">
            <mxPoint x="42" y="103" as="sourcePoint" />
            <mxPoint x="920" y="103" as="targetPoint" />
            <Array as="points">
              <mxPoint x="40" y="120" />
            </Array>
          </mxGeometry>
        </mxCell>
        <mxCell id="H2OrkQONFnL0gbRXcBQ1-37" value="main()" style="edgeLabel;html=1;align=center;verticalAlign=middle;resizable=0;points=[];" parent="H2OrkQONFnL0gbRXcBQ1-35" vertex="1" connectable="0">
          <mxGeometry x="0.011" y="-1" relative="1" as="geometry">
            <mxPoint x="-28" as="offset" />
          </mxGeometry>
        </mxCell>
        <mxCell id="H2OrkQONFnL0gbRXcBQ1-43" value="" style="edgeStyle=elbowEdgeStyle;fontSize=12;html=1;endArrow=blockThin;endFill=1;rounded=0;elbow=vertical;exitX=0;exitY=1;exitDx=0;exitDy=0;entryX=0;entryY=0;entryDx=0;entryDy=0;" parent="1" source="H2OrkQONFnL0gbRXcBQ1-88" target="H2OrkQONFnL0gbRXcBQ1-93" edge="1">
          <mxGeometry width="160" relative="1" as="geometry">
            <mxPoint x="900" y="224" as="sourcePoint" />
            <mxPoint x="390" y="224" as="targetPoint" />
          </mxGeometry>
        </mxCell>
        <mxCell id="H2OrkQONFnL0gbRXcBQ1-44" value="getBankById(bank_id)" style="edgeLabel;html=1;align=center;verticalAlign=middle;resizable=0;points=[];" parent="H2OrkQONFnL0gbRXcBQ1-43" vertex="1" connectable="0">
          <mxGeometry x="0.0373" y="2" relative="1" as="geometry">
            <mxPoint x="15" as="offset" />
          </mxGeometry>
        </mxCell>
        <mxCell id="H2OrkQONFnL0gbRXcBQ1-53" style="edgeStyle=orthogonalEdgeStyle;rounded=0;orthogonalLoop=1;jettySize=auto;html=1;exitX=0.25;exitY=1;exitDx=0;exitDy=0;entryX=0.25;entryY=0;entryDx=0;entryDy=0;" parent="1" source="H2OrkQONFnL0gbRXcBQ1-45" target="H2OrkQONFnL0gbRXcBQ1-52" edge="1">
          <mxGeometry relative="1" as="geometry" />
        </mxCell>
        <mxCell id="H2OrkQONFnL0gbRXcBQ1-54" value="Query bank table" style="edgeLabel;html=1;align=center;verticalAlign=middle;resizable=0;points=[];" parent="H2OrkQONFnL0gbRXcBQ1-53" vertex="1" connectable="0">
          <mxGeometry x="-0.025" relative="1" as="geometry">
            <mxPoint x="-5" as="offset" />
          </mxGeometry>
        </mxCell>
        <mxCell id="H2OrkQONFnL0gbRXcBQ1-55" style="edgeStyle=orthogonalEdgeStyle;rounded=0;orthogonalLoop=1;jettySize=auto;html=1;exitX=0.75;exitY=0;exitDx=0;exitDy=0;entryX=0.75;entryY=1;entryDx=0;entryDy=0;dashed=1;" parent="1" source="H2OrkQONFnL0gbRXcBQ1-52" target="H2OrkQONFnL0gbRXcBQ1-45" edge="1">
          <mxGeometry relative="1" as="geometry" />
        </mxCell>
        <mxCell id="H2OrkQONFnL0gbRXcBQ1-56" value="Answer" style="edgeLabel;html=1;align=center;verticalAlign=middle;resizable=0;points=[];" parent="H2OrkQONFnL0gbRXcBQ1-55" vertex="1" connectable="0">
          <mxGeometry x="0.125" y="-2" relative="1" as="geometry">
            <mxPoint x="-15" as="offset" />
          </mxGeometry>
        </mxCell>
        <mxCell id="H2OrkQONFnL0gbRXcBQ1-57" value="" style="edgeStyle=elbowEdgeStyle;fontSize=12;html=1;endArrow=blockThin;endFill=1;rounded=0;entryX=1;entryY=1;entryDx=0;entryDy=0;exitX=1;exitY=0;exitDx=0;exitDy=0;dashed=1;" parent="1" source="H2OrkQONFnL0gbRXcBQ1-93" target="H2OrkQONFnL0gbRXcBQ1-88" edge="1">
          <mxGeometry width="160" relative="1" as="geometry">
            <mxPoint x="400" y="330" as="sourcePoint" />
            <mxPoint x="920" y="330" as="targetPoint" />
            <Array as="points">
              <mxPoint x="860" y="330" />
            </Array>
          </mxGeometry>
        </mxCell>
        <mxCell id="H2OrkQONFnL0gbRXcBQ1-58" value="Bank Details (return bank[0])" style="edgeLabel;html=1;align=center;verticalAlign=middle;resizable=0;points=[];" parent="H2OrkQONFnL0gbRXcBQ1-57" vertex="1" connectable="0">
          <mxGeometry x="-0.0433" relative="1" as="geometry">
            <mxPoint x="12" as="offset" />
          </mxGeometry>
        </mxCell>
        <mxCell id="H2OrkQONFnL0gbRXcBQ1-64" value="" style="edgeStyle=elbowEdgeStyle;fontSize=12;html=1;endArrow=blockThin;endFill=1;rounded=0;exitX=0;exitY=1;exitDx=0;exitDy=0;entryX=0;entryY=0;entryDx=0;entryDy=0;" parent="1" source="H2OrkQONFnL0gbRXcBQ1-91" target="H2OrkQONFnL0gbRXcBQ1-105" edge="1">
          <mxGeometry width="160" relative="1" as="geometry">
            <mxPoint x="930" y="365" as="sourcePoint" />
            <mxPoint x="549.5" y="365" as="targetPoint" />
            <Array as="points" />
          </mxGeometry>
        </mxCell>
        <mxCell id="H2OrkQONFnL0gbRXcBQ1-65" value="getUserById(user_id)" style="edgeLabel;html=1;align=center;verticalAlign=middle;resizable=0;points=[];" parent="H2OrkQONFnL0gbRXcBQ1-64" vertex="1" connectable="0">
          <mxGeometry x="0.1742" y="-1" relative="1" as="geometry">
            <mxPoint x="140" as="offset" />
          </mxGeometry>
        </mxCell>
        <mxCell id="H2OrkQONFnL0gbRXcBQ1-68" style="edgeStyle=orthogonalEdgeStyle;rounded=0;orthogonalLoop=1;jettySize=auto;html=1;exitX=0.25;exitY=1;exitDx=0;exitDy=0;entryX=0.25;entryY=0;entryDx=0;entryDy=0;" parent="1" source="H2OrkQONFnL0gbRXcBQ1-66" target="H2OrkQONFnL0gbRXcBQ1-67" edge="1">
          <mxGeometry relative="1" as="geometry" />
        </mxCell>
        <mxCell id="H2OrkQONFnL0gbRXcBQ1-70" value="Query user_profiles table" style="edgeLabel;html=1;align=center;verticalAlign=middle;resizable=0;points=[];" parent="H2OrkQONFnL0gbRXcBQ1-68" vertex="1" connectable="0">
          <mxGeometry x="-0.1765" y="-1" relative="1" as="geometry">
            <mxPoint x="52" as="offset" />
          </mxGeometry>
        </mxCell>
        <mxCell id="H2OrkQONFnL0gbRXcBQ1-69" style="edgeStyle=orthogonalEdgeStyle;rounded=0;orthogonalLoop=1;jettySize=auto;html=1;exitX=0.75;exitY=0;exitDx=0;exitDy=0;entryX=0.75;entryY=1;entryDx=0;entryDy=0;dashed=1;" parent="1" source="H2OrkQONFnL0gbRXcBQ1-67" target="H2OrkQONFnL0gbRXcBQ1-66" edge="1">
          <mxGeometry relative="1" as="geometry" />
        </mxCell>
        <mxCell id="H2OrkQONFnL0gbRXcBQ1-71" value="Answer" style="edgeLabel;html=1;align=center;verticalAlign=middle;resizable=0;points=[];" parent="H2OrkQONFnL0gbRXcBQ1-69" vertex="1" connectable="0">
          <mxGeometry x="0.4706" y="-1" relative="1" as="geometry">
            <mxPoint as="offset" />
          </mxGeometry>
        </mxCell>
        <mxCell id="H2OrkQONFnL0gbRXcBQ1-20" value="" style="rounded=0;whiteSpace=wrap;html=1;labelBackgroundColor=#A9C4EB;fillColor=#A9C4EB;" parent="1" vertex="1">
          <mxGeometry x="490" y="626.0036363636364" width="100" height="43.63636363636363" as="geometry" />
        </mxCell>
        <mxCell id="H2OrkQONFnL0gbRXcBQ1-30" value="&lt;span style=&quot;color: rgb(0, 0, 0); font-family: Helvetica; font-size: 12px; font-style: normal; font-variant-ligatures: normal; font-variant-caps: normal; font-weight: 400; letter-spacing: normal; orphans: 2; text-align: center; text-indent: 0px; text-transform: none; widows: 2; word-spacing: 0px; -webkit-text-stroke-width: 0px; white-space: normal; text-decoration-thickness: initial; text-decoration-style: initial; text-decoration-color: initial; float: none; display: inline !important;&quot;&gt;UserProfile&lt;/span&gt;" style="text;whiteSpace=wrap;html=1;fillColor=#A9C4EB;labelBackgroundColor=#A9C4EB;" parent="1" vertex="1">
          <mxGeometry x="507.5" y="640" width="65" height="20" as="geometry" />
        </mxCell>
        <mxCell id="H2OrkQONFnL0gbRXcBQ1-63" value="" style="group" parent="1" vertex="1" connectable="0">
          <mxGeometry x="140" y="625.0036363636364" width="100" height="43.636363636363626" as="geometry" />
        </mxCell>
        <mxCell id="H2OrkQONFnL0gbRXcBQ1-5" value="" style="rounded=0;whiteSpace=wrap;html=1;fillColor=#A9C4EB;" parent="H2OrkQONFnL0gbRXcBQ1-63" vertex="1">
          <mxGeometry width="100" height="43.63636363636363" as="geometry" />
        </mxCell>
        <mxCell id="H2OrkQONFnL0gbRXcBQ1-28" value="&lt;span style=&quot;color: rgb(0, 0, 0); font-family: Helvetica; font-size: 12px; font-style: normal; font-variant-ligatures: normal; font-variant-caps: normal; font-weight: 400; letter-spacing: normal; orphans: 2; text-align: center; text-indent: 0px; text-transform: none; widows: 2; word-spacing: 0px; -webkit-text-stroke-width: 0px; white-space: normal; text-decoration-thickness: initial; text-decoration-style: initial; text-decoration-color: initial; float: none; display: inline !important;&quot;&gt;Database&lt;/span&gt;" style="text;whiteSpace=wrap;html=1;fillColor=#A9C4EB;labelBackgroundColor=#A9C4EB;" parent="H2OrkQONFnL0gbRXcBQ1-63" vertex="1">
          <mxGeometry x="20" y="11.81636363636369" width="60" height="20" as="geometry" />
        </mxCell>
        <mxCell id="H2OrkQONFnL0gbRXcBQ1-6" value="User" style="shape=umlActor;verticalLabelPosition=bottom;verticalAlign=top;html=1;outlineConnect=0;" parent="1" vertex="1">
          <mxGeometry x="31" y="634.9987041036717" width="18" height="43.8012958963283" as="geometry" />
        </mxCell>
        <mxCell id="H2OrkQONFnL0gbRXcBQ1-79" style="edgeStyle=orthogonalEdgeStyle;rounded=0;orthogonalLoop=1;jettySize=auto;html=1;exitX=0.25;exitY=1;exitDx=0;exitDy=0;entryX=0.25;entryY=0;entryDx=0;entryDy=0;" parent="1" source="H2OrkQONFnL0gbRXcBQ1-77" target="H2OrkQONFnL0gbRXcBQ1-78" edge="1">
          <mxGeometry relative="1" as="geometry" />
        </mxCell>
        <mxCell id="H2OrkQONFnL0gbRXcBQ1-83" value="Query user_types table" style="edgeLabel;html=1;align=center;verticalAlign=middle;resizable=0;points=[];" parent="H2OrkQONFnL0gbRXcBQ1-79" vertex="1" connectable="0">
          <mxGeometry x="0.0786" y="-1" relative="1" as="geometry">
            <mxPoint x="199" as="offset" />
          </mxGeometry>
        </mxCell>
        <mxCell id="H2OrkQONFnL0gbRXcBQ1-80" style="edgeStyle=orthogonalEdgeStyle;rounded=0;orthogonalLoop=1;jettySize=auto;html=1;exitX=0.75;exitY=0;exitDx=0;exitDy=0;entryX=0.75;entryY=1;entryDx=0;entryDy=0;dashed=1;" parent="1" source="H2OrkQONFnL0gbRXcBQ1-78" target="H2OrkQONFnL0gbRXcBQ1-77" edge="1">
          <mxGeometry relative="1" as="geometry" />
        </mxCell>
        <mxCell id="H2OrkQONFnL0gbRXcBQ1-81" value="Answer" style="edgeLabel;html=1;align=center;verticalAlign=middle;resizable=0;points=[];" parent="H2OrkQONFnL0gbRXcBQ1-80" vertex="1" connectable="0">
          <mxGeometry x="-0.0214" relative="1" as="geometry">
            <mxPoint x="177" as="offset" />
          </mxGeometry>
        </mxCell>
        <mxCell id="H2OrkQONFnL0gbRXcBQ1-84" value="" style="edgeStyle=elbowEdgeStyle;fontSize=12;html=1;endArrow=blockThin;endFill=1;rounded=0;elbow=vertical;entryX=1;entryY=1;entryDx=0;entryDy=0;exitX=1;exitY=0;exitDx=0;exitDy=0;dashed=1;" parent="1" source="H2OrkQONFnL0gbRXcBQ1-105" target="H2OrkQONFnL0gbRXcBQ1-91" edge="1">
          <mxGeometry width="160" relative="1" as="geometry">
            <mxPoint x="549.5" y="588" as="sourcePoint" />
            <mxPoint x="920" y="588" as="targetPoint" />
          </mxGeometry>
        </mxCell>
        <mxCell id="H2OrkQONFnL0gbRXcBQ1-85" value="User Details (return users[0])" style="edgeLabel;html=1;align=center;verticalAlign=middle;resizable=0;points=[];" parent="H2OrkQONFnL0gbRXcBQ1-84" vertex="1" connectable="0">
          <mxGeometry x="-0.1561" y="-2" relative="1" as="geometry">
            <mxPoint x="131" as="offset" />
          </mxGeometry>
        </mxCell>
        <mxCell id="H2OrkQONFnL0gbRXcBQ1-86" value="" style="edgeStyle=elbowEdgeStyle;fontSize=12;html=1;endArrow=blockThin;endFill=1;rounded=0;exitX=1;exitY=1;exitDx=0;exitDy=0;dashed=1;" parent="1" source="H2OrkQONFnL0gbRXcBQ1-92" edge="1" target="H2OrkQONFnL0gbRXcBQ1-4">
          <mxGeometry width="160" relative="1" as="geometry">
            <mxPoint x="930" y="608" as="sourcePoint" />
            <mxPoint x="39.5" y="608" as="targetPoint" />
            <Array as="points">
              <mxPoint x="100" y="606" />
            </Array>
          </mxGeometry>
        </mxCell>
        <mxCell id="H2OrkQONFnL0gbRXcBQ1-87" value="BankAccounts Details (promises)" style="edgeLabel;html=1;align=center;verticalAlign=middle;resizable=0;points=[];" parent="H2OrkQONFnL0gbRXcBQ1-86" vertex="1" connectable="0">
          <mxGeometry x="0.0802" y="3" relative="1" as="geometry">
            <mxPoint x="7" as="offset" />
          </mxGeometry>
        </mxCell>
        <mxCell id="H2OrkQONFnL0gbRXcBQ1-89" value="" style="edgeStyle=elbowEdgeStyle;fontSize=12;html=1;endArrow=blockThin;endFill=1;rounded=0;elbow=vertical;exitX=1;exitY=1;exitDx=0;exitDy=0;dashed=1;" parent="1" source="H2OrkQONFnL0gbRXcBQ1-106" edge="1">
          <mxGeometry width="160" relative="1" as="geometry">
            <mxPoint x="720" y="570" as="sourcePoint" />
            <mxPoint x="560" y="568" as="targetPoint" />
            <Array as="points">
              <mxPoint x="650" y="568" />
            </Array>
          </mxGeometry>
        </mxCell>
        <mxCell id="H2OrkQONFnL0gbRXcBQ1-90" value="Return User Type" style="edgeLabel;html=1;align=center;verticalAlign=middle;resizable=0;points=[];" parent="H2OrkQONFnL0gbRXcBQ1-89" vertex="1" connectable="0">
          <mxGeometry x="-0.1591" y="-1" relative="1" as="geometry">
            <mxPoint x="-21" as="offset" />
          </mxGeometry>
        </mxCell>
        <mxCell id="H2OrkQONFnL0gbRXcBQ1-72" value="" style="edgeStyle=elbowEdgeStyle;fontSize=12;html=1;endArrow=blockThin;endFill=1;rounded=0;elbow=vertical;entryX=0;entryY=1;entryDx=0;entryDy=0;exitX=0;exitY=0;exitDx=0;exitDy=0;" parent="1" source="H2OrkQONFnL0gbRXcBQ1-112" target="H2OrkQONFnL0gbRXcBQ1-106" edge="1">
          <mxGeometry width="160" relative="1" as="geometry">
            <mxPoint x="549.5" y="473" as="sourcePoint" />
            <mxPoint x="750" y="473" as="targetPoint" />
            <Array as="points">
              <mxPoint x="680" y="473" />
            </Array>
          </mxGeometry>
        </mxCell>
        <mxCell id="H2OrkQONFnL0gbRXcBQ1-73" value="getUserTypeById(user_type_id)" style="edgeLabel;html=1;align=center;verticalAlign=middle;resizable=0;points=[];" parent="H2OrkQONFnL0gbRXcBQ1-72" vertex="1" connectable="0">
          <mxGeometry x="-0.0409" y="-1" relative="1" as="geometry">
            <mxPoint x="1" as="offset" />
          </mxGeometry>
        </mxCell>
      </root>
    </mxGraphModel>
  </diagram>
</mxfile>
